HIERARCHY
ROOT Hips
{
  OFFSET -125.086 92.215 135.881
  CHANNELS 6 Xposition Yposition Zposition Zrotation Xrotation Yrotation
  JOINT LeftUpLeg
  {
    OFFSET 8.64259 1.95398 -2.38835
    CHANNELS 3 Zrotation Xrotation Yrotation
    JOINT LeftLeg
    {
      OFFSET 43.7702 0 0
      CHANNELS 3 Zrotation Xrotation Yrotation
      JOINT LeftFoot
      {
        OFFSET 40.6238 0 0
        CHANNELS 3 Zrotation Xrotation Yrotation
        JOINT LeftToeBase
        {
          OFFSET 12.7242 0 0
          CHANNELS 3 Zrotation Xrotation Yrotation
          End Site
          {
            OFFSET 0 0 0
          }
        }
      }
    }
  }
  JOINT RightUpLeg
  {
    OFFSET -8.2249 1.95398 -2.59336
    CHANNELS 3 Zrotation Xrotation Yrotation
    JOINT RightLeg
    {
      OFFSET 43.5653 0 0
      CHANNELS 3 Zrotation Xrotation Yrotation
      JOINT RightFoot
      {
        OFFSET 40.6238 0 0
        CHANNELS 3 Zrotation Xrotation Yrotation
        JOINT RightToeBase
        {
          OFFSET 12.7242 0 0
          CHANNELS 3 Zrotation Xrotation Yrotation
          End Site
          {
            OFFSET 0 0 0
          }
        }
      }
    }
  }
  JOINT Spine
  {
    OFFSET 0.165834 0.87714 6.61349
    CHANNELS 3 Zrotation Xrotation Yrotation
    JOINT Spine1
    {
      OFFSET 7.38963 1.71661e-005 0
      CHANNELS 3 Zrotation Xrotation Yrotation
      JOINT Spine2
      {
        OFFSET 11.9445 1.14441e-005 0
        CHANNELS 3 Zrotation Xrotation Yrotation
        JOINT Spine3
        {
          OFFSET 14.7254 4.19617e-005 0
          CHANNELS 3 Zrotation Xrotation Yrotation
          JOINT Spine4
          {
            OFFSET 10.9679 0 0
            CHANNELS 3 Zrotation Xrotation Yrotation
            JOINT RightShoulder
            {
              OFFSET 2.46616 -1.6653 3.69651
              CHANNELS 3 Zrotation Xrotation Yrotation
              JOINT RightArm
              {
                OFFSET 13.0012 0 0
                CHANNELS 3 Zrotation Xrotation Yrotation
                JOINT RightForeArm
                {
                  OFFSET 28.7848 1.52588e-005 0
                  CHANNELS 3 Zrotation Xrotation Yrotation
                  JOINT RightHand
                  {
                    OFFSET 26.5688 1.52588e-005 0
                    CHANNELS 3 Zrotation Xrotation Yrotation
                    End Site
                    {
                      OFFSET 0 0 0
                    }
                  }
                }
              }
            }
            JOINT LeftShoulder
            {
              OFFSET 2.38034 -1.29275 -3.7523
              CHANNELS 3 Zrotation Xrotation Yrotation
              JOINT LeftArm
              {
                OFFSET 16.3182 6.10352e-005 0
                CHANNELS 3 Zrotation Xrotation Yrotation
                JOINT LeftForeArm
                {
                  OFFSET 27.0901 0 0
                  CHANNELS 3 Zrotation Xrotation Yrotation
                  JOINT LeftHand
                  {
                    OFFSET 24.5451 1.52588e-005 0
                    CHANNELS 3 Zrotation Xrotation Yrotation
                    End Site
                    {
                      OFFSET 0 0 0
                    }
                  }
                }
              }
            }
            JOINT Neck
            {
              OFFSET 5.0226 -0.0266342 0
              CHANNELS 3 Zrotation Xrotation Yrotation
              JOINT Head
              {
                OFFSET 6.69363 2.86102e-005 0
                CHANNELS 3 Zrotation Xrotation Yrotation
                End Site
                {
                  OFFSET 0 0 0
                }
              }
            }
          }
        }
      }
    }
  }
}
MOTION
Frames:	15
Frame Time:	0.0416667
46.0987 19.3953 26.2693 -9.97604 -43.376 -100.497 -99.1266 78.9589 28.0136 -109.288 -11.794 3.79429 71.6098 13.7851 8.36797 35.643 -1.79745 21.8994 152.764 2.05443 68.9901 -42.0506 33.6634 21.2883 82.9253 -7.26846 16.2368 83.4104 -8.75825 0.114745 -2.61131 8.41372 -86.5246 10.1123 -3.62111 7.20192 -1.57437 -3.30151 7.35329 -24.0377 -5.61484 5.78719 -4.02505 -5.61483 5.7872 102.363 -4.01015 -81.3879 -47.303 78.9911 54.3597 -18.6041 -6.8052 -146.839 -26.1086 -3.21241 8.92512 -81.5171 -28.996 89.4673 35.9968 24.1008 -48.2514 -19.5349 2.96706 -131.478 -4.48932 0.544005 -37.7392 29.6699 -13.3145 19.5377 -13.0542 -17.2314 -41.374 
45.3561 20.3755 24.6296 -9.35709 -34.6677 -98.4377 -101.033 78.7083 39.5058 -107.097 -14.2526 3.72231 74.8407 15.3486 7.47998 34.5823 -1.829 20.5598 160.488 3.87561 73.0182 -36.4957 21.9677 6.97789 81.0386 -6.51042 19.383 76.514 -5.80751 5.23052 -1.23014 8.53137 -87.0558 9.80419 -1.11875 5.93038 -1.87987 -0.857105 5.97368 -24.3285 -2.84707 5.32297 -4.31582 -2.84704 5.32297 103.355 0.367641 -77.2662 -49.095 80.998 60.1495 -20.0737 -3.1757 -150.598 -21.988 -3.34373 12.3453 -80.985 -20.2486 89.4894 4.36916 0.515574 -28.6874 -7.17027 1.59794 -125.488 -30.6362 5.16771 -24.1494 10.3304 -17.5919 24.2565 3.35895 -25.7712 -48.53 
44.2243 21.1314 24.7267 -6.75724 -30.3236 -95.613 -101.202 79.2165 44.0457 -105.454 -10.2771 3.27269 74.7901 15.9325 9.66189 34.2773 -2.05898 23.7643 164.271 6.14437 75.6643 -33.953 19.4444 3.51183 74.5685 -5.38608 18.2681 70.9272 -2.43367 15.4983 -0.94931 8.14836 -87.574 10.5703 -0.775855 4.89185 -1.10971 -0.560083 4.92113 -23.5837 -2.20885 4.43414 -3.57103 -2.20884 4.43412 103.719 1.44234 -75.4893 -1.52121 81.7527 10.0107 -20.6561 -0.623405 -150.203 -20.99 -3.3028 12.9558 -79.0075 -9.43985 95.2197 -15.3443 -44.2776 -19.6703 -13.0224 16.7084 -124.231 -35.2713 6.09927 -26.0249 18.3122 -14.6955 23.2276 1.43635 -23.0687 -38.8439 
41.9295 22.0009 27.17 -5.89575 -29.7463 -94.8654 -118.202 78.2748 59.7516 -104.721 -6.1505 2.98833 75.6881 15.6026 7.13019 33.1984 -2.48186 27.2672 166.039 5.957 75.9575 -30.1669 15.7501 2.1462 64.9684 -3.52013 10.8225 57.3828 -2.05744 15.1123 -1.06228 7.54519 -88.1285 11.7869 -1.23355 3.8595 0.110656 -1.06263 3.90993 -22.3931 -2.33587 3.31131 -2.38047 -2.33586 3.31131 104.261 1.9425 -73.0647 24.3157 59.5026 -24.5288 -24.6241 8.68309 -144.143 -24.6949 -3.77226 12.3757 -78.7269 1.71035 90.895 -54.062 -66.3468 -64.1433 -3.52586 12.3429 -114.677 -4.918 0.716499 -16.7509 17.5014 -11.0546 20.0316 5.13434 -18.5901 -28.7517 
37.6175 23.8952 30.9115 -4.01027 -28.6281 -95.7133 -137.573 73.8945 75.6282 -100.643 -2.5041 2.11121 76.0139 13.1775 -1.01513 29.4398 -3.28746 29.2691 168.179 2.63797 74.1313 -15.2358 15.707 -0.844766 47.2346 3.55447 11.5816 45.1199 -2.10574 9.17855 -1.38173 6.92686 -88.8572 13.0415 -2.1938 2.5548 1.36971 -2.07928 2.64879 -21.1691 -2.86006 1.77744 -1.15653 -2.86004 1.77741 103.904 2.20553 -74.5273 23.6979 44.8461 -33.6459 -27.6493 15.2158 -139.948 -21.1169 -2.654 9.36223 -78.9245 7.41104 91.5564 -55.7332 -63.6504 -82.2328 4.47803 3.24137 -94.1729 7.9355 -1.07453 -15.247 25.4361 -2.88912 27.6387 -1.78587 -13.3512 -30.0213 
30.8417 26.8709 34.7223 -0.497697 -23.2869 -98.3495 -147.073 64.7843 82.2309 -89.6996 0.458415 -0.0764254 75.4213 10.586 -8.42558 31.9495 -3.25376 33.5305 167.932 4.6667 70.0886 -6.81117 15.347 -3.04441 46.4716 3.96431 14.9402 11.1348 3.06986 -2.47323 -1.22372 6.62805 -89.3808 13.6343 -2.12624 1.5165 1.96411 -2.05744 1.60862 -20.5826 -2.48367 0.807127 -0.569946 -2.48365 0.807123 104.5 -2.77368 -73.4412 18.4743 36.5843 -42.88 -31.0094 21.155 -137.644 -21.8256 -3.00734 10.7419 -78.9627 11.491 90.2775 -40.6808 -64.459 -78.3528 6.65733 -2.11555 -77.2569 15.1674 -1.41499 -12.9221 54.6698 5.95408 23.9105 -24.2025 -5.96597 -21.3792 
23.8365 29.6678 39.4991 0.017588 -17.0361 -101.772 -158.016 53.1949 87.2041 -77.0046 2.11568 -2.09201 75.4946 8.72799 -13.8707 29.0254 -3.86823 33.7782 162.159 19.4289 61.7138 -25.0579 14.5636 2.12456 55.9458 1.31531 20.519 53.2352 -4.26541 -4.76318 -0.779719 6.88943 -89.9332 13.0895 -1.51533 0.32236 1.41923 -1.49966 0.388739 -21.1218 -1.54214 -0.148059 -1.10917 -1.54215 -0.148055 106.692 -12.7327 -68.8113 8.8904 34.5088 -53.6916 -30.0684 22.1723 -136.977 -22.6638 -3.13854 10.8651 -79.0906 14.1294 87.1602 -38.6777 -69.6588 -71.8108 19.5501 3.11042 -75.5221 16.2462 -1.42909 -12.5388 99.2623 -1.04384 -1.27678 -61.2887 -5.19749 9.10666 
17.1543 30.6553 45.81 -0.925663 -5.39579 -103.986 -163.677 39.7485 90.3467 -64.4421 1.3165 -3.2085 73.358 7.07775 -17.462 32.6937 -2.64117 27.8639 163.858 43.8475 53.0742 -65.8615 3.32137 1.76983 71.4607 -2.0303 23.2423 68.8733 -5.95288 1.33831 -0.405243 7.40256 -90.8696 12.0722 -1.21719 -1.60893 0.40113 -1.2868 -1.55381 -22.1298 -0.677383 -1.90026 -2.11714 -0.677384 -1.90025 102.081 -15.7154 -83.2029 -6.05644 30.0369 -48.2469 -34.5925 27.0405 -132.524 -24.4136 -3.52324 11.3794 -80.365 0.0274473 90.0109 -70.8101 -75.0879 -97.9198 31.9637 0.804375 -92.3268 12.9667 -1.48458 -14.6926 114.72 3.37213 -6.41794 -76.6755 2.02395 10.9088 
10.2277 30.3411 51.8507 4.2709 11.5093 -103.593 -163.872 30.8714 93.2352 -51.106 -2.46449 -4.17351 70.8851 6.26479 -19.8038 33.0993 -1.93087 20.1155 -174.905 71.471 41.9906 -102.366 -7.27293 -2.80638 76.4735 -3.12121 23.534 72.7402 -5.91667 3.47195 0.725555 7.83125 -91.5701 11.211 0.713975 -3.19578 -0.463766 0.572711 -3.22409 -22.9744 1.64107 -2.83395 -2.9618 1.64106 -2.83398 99.2636 -15.6616 -89.8872 -17.0127 20.591 -47.0817 -41.7469 33.0393 -125.688 -28.1056 -3.93109 10.7754 -78.804 -11.4303 94.1353 -90.952 -72.8722 -115.771 24.527 2.92628 -104.274 9.42616 -1.34532 -16.4692 119.349 13.8514 -3.46232 -75.9335 12.6901 1.33193 
4.51136 29.3105 57.378 0.00586465 22.052 -99.5686 -167.271 19.8506 95.2731 -43.1213 -4.95646 -2.05799 66.9282 5.67304 -18.3805 33.9774 -1.73338 18.5497 -108.249 86.8484 -20.461 -125.093 -15.9669 -4.95262 79.6792 -3.19123 25.3196 79.6543 -7.36433 2.10676 1.80609 8.57802 -92.338 9.75244 2.54284 -4.84413 -1.92535 2.32743 -4.95102 -24.4313 3.88022 -3.85786 -4.41867 3.88022 -3.85786 98.0355 -21.3945 -91.9965 -29.9042 12.8774 -41.7378 -42.3225 34.7692 -122.347 -28.0422 -3.14402 7.61638 -78.2121 -19.5296 95.8912 -70.578 -68.4237 -97.58 20.3493 1.38825 -113.764 7.34392 -0.911333 -14.0122 113.876 21.8462 1.60897 -69.2029 16.3885 -5.82072 
0.0725687 26.7689 61.0986 -7.74 24.974 -93.9266 -171.058 9.29887 95.223 -39.0987 -7.40667 1.22207 66.0546 5.72694 -17.5517 30.2561 -1.83034 16.4772 -22.1178 86.3157 -106.926 -134.891 -17.7941 -5.7674 80.1541 -3.15211 25.5202 75.0939 -7.68262 -1.76498 2.13264 9.22635 -93.383 8.46515 2.76182 -6.86076 -3.22143 2.4579 -6.97494 -25.6729 4.69318 -5.71926 -5.66027 4.69317 -5.71927 97.2848 -23.0615 -93.4394 -34.1682 8.84278 -34.5171 -39.3559 34.894 -123.548 -20.4405 -1.468 3.08146 -77.2119 -26.4228 98.1396 -53.1838 -60.5813 -81.2046 20.3942 -1.26883 -120.991 6.4545 -0.603986 -11.0068 114.318 23.1669 1.02899 -71.4736 16.0016 -3.05376 
-2.33542 22.8325 62.5007 -7.30393 27.4585 -93.1964 -173.223 5.31232 92.5975 -35.5977 -3.69888 2.36312 66.0564 6.25762 -7.83502 25.4069 -1.56287 12.7413 -71.6227 85.427 -54.2721 -132.71 -17.9075 -5.27578 70.7668 -0.593778 25.0012 95.0562 -13.8718 -5.46186 2.49364 8.79198 -93.8943 9.33725 3.22592 -7.95039 -2.35487 2.87409 -8.08351 -24.7766 5.46137 -6.62227 -4.764 5.46137 -6.62227 97.8212 -23.6976 -92.1014 -34.3403 4.17927 -24.9644 -35.7835 36.4138 -127.889 -17.3717 -0.918547 0.987393 -77.53 -21.1084 97.5089 -52.5242 -56.6714 -67.7723 19.211 -1.76545 -127.71 6.57526 -0.446838 -8.94908 111.472 19.2541 -3.72409 -74.9525 12.4952 6.28255 
-3.03589 19.537 62.2241 -4.41661 30.1448 -94.4225 -174.348 1.58409 91.2772 -29.4296 -2.01097 3.13168 67.9828 7.09671 -2.16774 20.6443 -0.0114981 3.80072 -92.098 83.9427 -33.5753 -130.996 -14.1873 -4.96719 69.4967 1.83883 34.1309 98.8775 -16.4873 -8.22765 2.59981 8.33269 -93.8537 10.267 3.42038 -7.94592 -1.42458 3.06854 -8.08754 -23.8529 5.64564 -6.55953 -3.84026 5.64565 -6.55954 98.854 -23.0593 -89.817 -31.8466 4.74171 -16.8707 -31.0361 32.5759 -132.191 -27.1207 -1.25011 0.0987737 -77.1304 -11.6595 98.7062 -58.9302 -60.0664 -57.578 16.1454 0.442813 -135.233 5.75675 -0.24887 -6.59787 84.7626 30.1209 15.3005 -48.2106 13.8473 -8.59887 
-3.16019 20.7514 61.5492 -3.9171 28.7775 -94.1212 -174.016 2.69552 93.0341 -29.2503 -0.0221948 3.97173 68.8532 8.36908 -1.77412 14.9483 1.24739 -0.127746 -97.8835 86.4802 -27.1863 -129.235 -18.0656 -5.20778 68.886 1.06918 30.2633 106.949 -15.9935 -3.80771 2.60515 8.27469 -93.4232 10.3904 3.6231 -7.11504 -1.29577 3.30728 -7.26663 -23.7623 5.59076 -5.70349 -3.74959 5.59075 -5.70348 99.8356 -23.0703 -87.5549 -23.9609 8.53742 -13.0016 -23.8053 25.3558 -134.983 -10.0322 -0.838744 -7.41929 -75.8146 -8.24351 102.658 -60.1363 -50.0692 -61.2115 21.4992 -4.5133 -133.567 5.15645 -0.205138 -6.0811 36.9086 19.9739 36.2003 -6.32552 2.46238 -15.4488 
-3.80601 23.3218 60.1949 -4.43528 27.8328 -94.082 -173.795 4.50898 93.96 -28.4614 0.189347 3.87741 64.951 5.80312 -2.70761 5.80471 1.49172 1.59496 -152.274 86.2878 29.6398 -125.008 -16.9637 -5.03336 69.6258 1.65978 33.9674 110.963 -10.3494 5.65774 2.57085 8.03584 -92.9811 10.8616 3.74317 -6.27391 -0.81991 3.46401 -6.43183 -23.3173 5.45349 -4.86284 -3.30462 5.45348 -4.86282 100.541 -16.1413 -86.5848 -15.3453 32.6129 -9.2581 4.91731 -8.7162 -130.276 31.2494 -4.67493 -23.1101 -76.0501 -11.2812 101.912 -47.5384 -42.1302 -61.8855 26.9925 -10.0668 -129.798 3.00499 -0.105233 -4.47569 33.3152 21.737 49.9912 -4.63744 -2.78948 -29.9484 
